<svg width="80" height="80" viewBox="0 0 80 80" fill="none" xmlns="http://www.w3.org/2000/svg">
  <!-- Background circle -->
  <circle cx="40" cy="40" r="38" fill="#DAA520" stroke="#B8860B" stroke-width="2"/>
  
  <!-- Giraffe body -->
  <ellipse cx="40" cy="60" rx="12" ry="8" fill="#DEB887"/>
  
  <!-- Long neck -->
  <rect x="36" y="25" width="8" height="35" fill="#DEB887"/>
  
  <!-- Head (small, arrogant) -->
  <ellipse cx="40" cy="22" rx="8" ry="6" fill="#DEB887"/>
  
  <!-- Spots pattern -->
  <circle cx="35" cy="30" r="2" fill="#8B4513"/>
  <circle cx="45" cy="35" r="2" fill="#8B4513"/>
  <circle cx="38" cy="45" r="2" fill="#8B4513"/>
  <circle cx="42" cy="50" r="2" fill="#8B4513"/>
  <circle cx="36" cy="55" r="1.5" fill="#8B4513"/>
  <circle cx="44" cy="60" r="1.5" fill="#8B4513"/>
  
  <!-- Eyes (looking down condescendingly) -->
  <circle cx="37" cy="20" r="2" fill="#000"/>
  <circle cx="43" cy="20" r="2" fill="#000"/>
  <ellipse cx="37" cy="21" rx="2" ry="1" fill="#FFF"/>
  <ellipse cx="43" cy="21" rx="2" ry="1" fill="#FFF"/>
  
  <!-- Nose (upturned) -->
  <ellipse cx="40" cy="24" rx="1.5" ry="1" fill="#000"/>
  
  <!-- Horns -->
  <rect x="35" y="15" width="2" height="5" fill="#8B4513"/>
  <rect x="43" y="15" width="2" height="5" fill="#8B4513"/>
  <circle cx="36" cy="15" r="1.5" fill="#654321"/>
  <circle cx="44" cy="15" r="1.5" fill="#654321"/>
</svg>
