<svg width="80" height="80" viewBox="0 0 80 80" fill="none" xmlns="http://www.w3.org/2000/svg">
  <!-- Background circle -->
  <circle cx="40" cy="40" r="38" fill="#8B4513" stroke="#A0522D" stroke-width="2"/>
  
  <!-- Hedgehog body (spiky) -->
  <ellipse cx="40" cy="50" rx="20" ry="15" fill="#654321"/>
  
  <!-- Spikes all around -->
  <path d="M20 45 L15 35 L25 40" fill="#8B4513"/>
  <path d="M25 35 L20 25 L30 30" fill="#8B4513"/>
  <path d="M35 30 L30 20 L40 25" fill="#8B4513"/>
  <path d="M45 30 L50 20 L40 25" fill="#8B4513"/>
  <path d="M55 35 L60 25 L50 30" fill="#8B4513"/>
  <path d="M60 45 L65 35 L55 40" fill="#8B4513"/>
  <path d="M60 55 L65 45 L55 50" fill="#8B4513"/>
  <path d="M55 60 L60 50 L50 55" fill="#8B4513"/>
  <path d="M45 65 L50 55 L40 60" fill="#8B4513"/>
  <path d="M35 65 L30 55 L40 60" fill="#8B4513"/>
  <path d="M25 60 L20 50 L30 55" fill="#8B4513"/>
  <path d="M20 55 L15 45 L25 50" fill="#8B4513"/>
  
  <!-- Head (small, withdrawn) -->
  <ellipse cx="40" cy="42" rx="8" ry="6" fill="#DEB887"/>
  
  <!-- Eyes (suspicious, small) -->
  <circle cx="37" cy="40" r="1.5" fill="#000"/>
  <circle cx="43" cy="40" r="1.5" fill="#000"/>
  
  <!-- Nose -->
  <circle cx="40" cy="44" r="1" fill="#000"/>
</svg>
