<svg width="80" height="80" viewBox="0 0 80 80" fill="none" xmlns="http://www.w3.org/2000/svg">
  <!-- Background circle -->
  <circle cx="40" cy="40" r="38" fill="#696969" stroke="#808080" stroke-width="2"/>
  
  <!-- Hippo body (large, heavy) -->
  <ellipse cx="40" cy="55" rx="25" ry="15" fill="#778899"/>
  
  <!-- Head (large, heavy) -->
  <ellipse cx="40" cy="35" rx="20" ry="15" fill="#778899"/>
  
  <!-- Eyes (half-closed, disinterested) -->
  <ellipse cx="33" cy="28" rx="4" ry="2" fill="#000"/>
  <ellipse cx="47" cy="28" rx="4" ry="2" fill="#000"/>
  <ellipse cx="33" cy="27" rx="4" ry="1" fill="#696969"/>
  <ellipse cx="47" cy="27" rx="4" ry="1" fill="#696969"/>
  
  <!-- Nostrils (prominent) -->
  <ellipse cx="37" cy="32" rx="2" ry="1" fill="#000"/>
  <ellipse cx="43" cy="32" rx="2" ry="1" fill="#000"/>
  
  <!-- Mouth (large, indifferent) -->
  <ellipse cx="40" cy="42" rx="12" ry="4" fill="#000"/>
  <ellipse cx="40" cy="41" rx="10" ry="3" fill="#696969"/>
  
  <!-- Ears (small) -->
  <ellipse cx="25" cy="25" rx="3" ry="5" fill="#778899"/>
  <ellipse cx="55" cy="25" rx="3" ry="5" fill="#778899"/>
  
  <!-- Legs (stubby) -->
  <rect x="20" y="65" width="6" height="8" fill="#696969"/>
  <rect x="30" y="65" width="6" height="8" fill="#696969"/>
  <rect x="44" y="65" width="6" height="8" fill="#696969"/>
  <rect x="54" y="65" width="6" height="8" fill="#696969"/>
</svg>
